<svg width="45" height="45" viewBox="0 0 45 45" fill="none" xmlns="http://www.w3.org/2000/svg">
<path d="M33.75 22.5C33.75 18.0875 31.2 14.275 27.5 12.4375V17.9625L33.6375 24.1C33.7125 23.575 33.75 23.0375 33.75 22.5ZM40 22.5C40 24.85 39.4875 27.0625 38.65 29.1L42.4375 32.8875C44.0625 29.775 45 26.25 45 22.5C45 11.8 37.5125 2.85 27.5 0.575V5.7375C34.725 7.8875 40 14.575 40 22.5ZM3.1875 0L0 3.1875L11.8125 15H0V30H10L22.5 42.5V25.6875L33.1375 36.325C31.4625 37.6125 29.575 38.65 27.5 39.275V44.4375C30.8794 43.6617 34.0328 42.1128 36.7125 39.9125L41.8125 45L45 41.8125L22.5 19.3125L3.1875 0ZM22.5 2.5L17.275 7.725L22.5 12.95V2.5Z" fill="#A7B1BE"/>
</svg>
