<svg width="45" height="45" viewBox="0 0 45 45" fill="none" xmlns="http://www.w3.org/2000/svg">
<path d="M43.6685 18.6516L39.3789 17.5792C39.0215 16.3513 38.5302 15.1663 37.9141 14.0456L40.1896 10.253C40.3913 9.91684 40.4748 9.5229 40.4269 9.13382C40.379 8.74473 40.2024 8.38283 39.9252 8.10564L36.8943 5.07473C36.6171 4.79752 36.2552 4.62094 35.8661 4.57303C35.477 4.52513 35.0831 4.60866 34.747 4.81035L30.9544 7.08584C29.8337 6.46969 28.6487 5.97848 27.4208 5.62106L26.3484 1.33155C26.2533 0.951217 26.0339 0.613582 25.7249 0.372316C25.4159 0.13105 25.0351 5.51189e-07 24.6431 1.08247e-10L20.3567 1.08247e-10C19.9647 -4.34882e-06 19.584 0.131033 19.275 0.372282C18.966 0.613531 18.7465 0.951145 18.6514 1.33146L17.5791 5.62097C16.3511 5.9784 15.1661 6.4696 14.0454 7.08576L10.2529 4.81026C9.91671 4.60856 9.52278 4.52502 9.1337 4.57292C8.74461 4.62083 8.38271 4.79742 8.10552 5.07464L5.07462 8.10555C4.79743 8.38276 4.62085 8.74466 4.57295 9.13374C4.52505 9.52282 4.60857 9.91674 4.81024 10.2529L7.08573 14.0455C6.46958 15.1662 5.97837 16.3512 5.62095 17.5791L1.33136 18.6515C0.95107 18.7466 0.613477 18.9661 0.372246 19.2751C0.131015 19.5841 -9.24918e-06 19.9648 4.89703e-10 20.3568L4.89703e-10 24.6432C-4.34843e-06 25.0352 0.131032 25.416 0.37228 25.725C0.613528 26.034 0.951142 26.2534 1.33145 26.3485L5.62103 27.4209C5.97846 28.6488 6.46967 29.8338 7.08582 30.9545L4.81033 34.7471C4.60863 35.0833 4.52509 35.4772 4.57299 35.8663C4.6209 36.2554 4.79749 36.6173 5.07471 36.8944L8.10561 39.9254C8.38281 40.2026 8.74471 40.3792 9.13379 40.4271C9.52287 40.475 9.91679 40.3914 10.2529 40.1897L14.0455 37.9142C15.1662 38.5304 16.3512 39.0216 17.5791 39.379L18.6515 43.6685C18.7466 44.0489 18.9661 44.3865 19.2751 44.6277C19.5841 44.869 19.9648 45 20.3568 45H24.6432C25.0352 45 25.416 44.869 25.7249 44.6277C26.0339 44.3865 26.2534 44.0489 26.3485 43.6685L27.4209 39.379C28.6488 39.0216 29.8338 38.5304 30.9545 37.9142L34.7471 40.1897C35.0832 40.3914 35.4771 40.475 35.8662 40.4271C36.2553 40.3792 36.6172 40.2026 36.8944 39.9254L39.9253 36.8944C40.2025 36.6172 40.3791 36.2553 40.427 35.8663C40.4749 35.4772 40.3913 35.0833 40.1897 34.7471L37.9142 30.9545C38.5303 29.8338 39.0215 28.6488 39.379 27.4209L43.6686 26.3485C44.0489 26.2534 44.3865 26.034 44.6277 25.725C44.869 25.416 45 25.0352 45 24.6432V20.3568C45 19.9648 44.8689 19.5841 44.6277 19.2751C44.3864 18.9661 44.0488 18.7466 43.6685 18.6516ZM22.5 29.5313C18.6229 29.5313 15.4687 26.3771 15.4687 22.5C15.4687 18.623 18.6229 15.4688 22.5 15.4688C26.377 15.4688 29.5312 18.623 29.5312 22.5C29.5312 26.3771 26.377 29.5313 22.5 29.5313Z" fill="#A7B1BE"/>
</svg>
