<svg width="23" height="45" viewBox="0 0 23 45" fill="none" xmlns="http://www.w3.org/2000/svg">
<path d="M3.73211 44.9982C4.21225 44.9998 4.68665 44.8939 5.12045 44.6881C5.55426 44.4823 5.93645 44.182 6.23893 43.8091L21.7619 24.5259C22.2346 23.9508 22.493 23.2295 22.493 22.485C22.493 21.7406 22.2346 21.0193 21.7619 20.4442L5.69257 1.16102C5.14706 0.504692 4.36316 0.0919528 3.51333 0.0135995C2.66349 -0.0647538 1.81734 0.197697 1.16102 0.743215C0.504691 1.28873 0.091953 2.07263 0.0135997 2.92246C-0.0647536 3.7723 0.197696 4.61845 0.743213 5.27477L15.1092 22.5011L1.2253 39.7275C0.832294 40.1992 0.582649 40.7737 0.505904 41.3828C0.429158 41.992 0.528521 42.6105 0.792238 43.1649C1.05595 43.7194 1.47299 44.1868 1.99399 44.5116C2.51499 44.8365 3.11816 45.0054 3.73211 44.9982Z" fill="#C9D5E4"/>
</svg>
