<svg width="45" height="45" viewBox="0 0 45 45" fill="none" xmlns="http://www.w3.org/2000/svg">
<g clip-path="url(#clip0_50_9)">
<mask id="mask0_50_9" style="mask-type:luminance" maskUnits="userSpaceOnUse" x="0" y="0" width="45" height="45">
<path d="M45 0H0V45H45V0Z" fill="white"/>
</mask>
<g mask="url(#mask0_50_9)">
<path d="M4.68785 31.0829H11.5553C12.0292 31.0829 12.6859 31.3551 13.0206 31.6897L20.8935 39.5633C21.8989 40.5681 22.7146 40.2299 22.7146 38.8089V6.1881C22.7146 4.76709 21.8989 4.42888 20.8935 5.43435L13.0206 13.3072C12.6859 13.6426 12.0292 13.914 11.5553 13.914H4.68785C3.26613 13.914 2.1123 15.0686 2.1123 16.4896V28.5074C2.1123 29.9291 3.26613 31.0829 4.68785 31.0829Z" fill="#A7B1BE"/>
<path fill-rule="evenodd" clip-rule="evenodd" d="M39.4538 22.4999C39.4538 18.6201 38.2262 14.8345 35.9431 11.6922C33.7022 8.60198 30.5691 6.25847 26.9726 4.97948L26.1591 4.6912C25.7126 4.533 25.4792 4.04151 25.6374 3.59573L26.2126 1.97714C26.3715 1.53065 26.863 1.29722 27.3087 1.45612L28.1145 1.743C32.3719 3.25401 36.0718 6.018 38.7247 9.67495C41.4282 13.4008 42.8879 17.8903 42.8879 22.4999C42.8879 27.1012 41.4282 31.5907 38.7247 35.3165C36.0718 38.9735 32.3719 41.7459 28.1145 43.2569L27.3087 43.5438C26.863 43.7027 26.3715 43.4692 26.2126 43.0228L25.6374 41.4042C25.4792 40.9584 25.7126 40.4669 26.1591 40.3087L26.9726 40.0204C30.5691 38.7414 33.7022 36.3979 35.9431 33.3077C38.2262 30.1654 39.4538 26.3798 39.4538 22.4999Z" fill="#A7B1BE"/>
<path d="M26.7752 13.701L26.0053 13.3143C25.582 13.1012 25.4111 12.5844 25.6242 12.1612L26.3983 10.622C26.6107 10.1987 27.1268 10.0286 27.55 10.2423L28.3115 10.6276C30.5524 11.7526 32.4578 13.4261 33.8655 15.4954C35.2563 17.564 36.0121 20.0017 36.0206 22.4999C36.0121 24.9981 35.2563 27.4274 33.8655 29.496C32.4578 31.5646 30.5524 33.2387 28.3115 34.3637L27.55 34.7483C27.1268 34.9621 26.6107 34.7926 26.3976 34.3694L25.6249 32.838C25.4118 32.4147 25.582 31.8986 26.0053 31.6855L26.7752 31.2988C28.4838 30.4403 29.9428 29.1529 31.0242 27.573C32.0289 26.0711 32.5781 24.3112 32.5865 22.4999C32.5781 20.6887 32.0289 18.9203 31.0242 17.4269C29.9428 15.8385 28.4838 14.5595 26.7752 13.701Z" fill="#A7B1BE"/>
</g>
</g>
<defs>
<clipPath id="clip0_50_9">
<rect width="45" height="45" fill="white"/>
</clipPath>
</defs>
</svg>
